G75*
G70*
%OFA0B0*%
%FSLAX24Y24*%
%IPPOS*%
%LPD*%
%AMOC8*
5,1,8,0,0,1.08239X$1,22.5*
%
%ADD10C,0.2442*%
%ADD11C,0.0482*%
%ADD12C,0.0456*%
%ADD13C,0.0370*%
D10*
X004234Y005009D03*
X004234Y041427D03*
X044391Y041820D03*
X044588Y005009D03*
D11*
X031840Y010856D03*
X030840Y010856D03*
X029840Y010856D03*
X028840Y010856D03*
X027840Y010856D03*
X026840Y010856D03*
X025840Y010856D03*
X024840Y010856D03*
X023840Y010856D03*
X022840Y010856D03*
X021840Y010856D03*
X020840Y010856D03*
X019840Y010856D03*
X018840Y010856D03*
D12*
X020850Y015100D03*
X022850Y018850D03*
X023350Y018850D03*
X023750Y020750D03*
X026850Y017600D03*
X026350Y017100D03*
X025850Y017100D03*
X027600Y019100D03*
X028600Y018100D03*
X033850Y023600D03*
X037075Y024850D03*
X038350Y024850D03*
X039350Y023600D03*
X036717Y014467D03*
X035487Y014187D03*
X035500Y013200D03*
X034350Y011850D03*
X036850Y011100D03*
X037600Y011850D03*
X013600Y016600D03*
X012837Y017350D03*
X013600Y018100D03*
X012100Y016600D03*
X011100Y018100D03*
X011600Y013350D03*
X012450Y013350D03*
X012100Y032350D03*
X012100Y033950D03*
X011100Y035100D03*
X011850Y035850D03*
X030600Y037200D03*
X034350Y036100D03*
D13*
X024675Y040225D03*
X024425Y039875D03*
M02*
