%
M48
M72
T01C0.0150
T02C0.0236
T03C0.0402
T04C0.2362
%
T01
X24425Y39875
X24675Y40225
T02
X30600Y37200
X34350Y36100
X37075Y24850
X38350Y24850
X39350Y23600
X33850Y23600
X28600Y18100
X27600Y19100
X26850Y17600
X26350Y17100
X25850Y17100
X23350Y18850
X22850Y18850
X23750Y20750
X20850Y15100
X13600Y16600
X12837Y17350
X13600Y18100
X12100Y16600
X11100Y18100
X11600Y13350
X12450Y13350
X12100Y32350
X12100Y33950
X11100Y35100
X11850Y35850
X35487Y14187
X35500Y13200
X36717Y14467
X37600Y11850
X36850Y11100
X34350Y11850
T03
X31840Y10856
X30840Y10856
X29840Y10856
X28840Y10856
X27840Y10856
X26840Y10856
X25840Y10856
X24840Y10856
X23840Y10856
X22840Y10856
X21840Y10856
X20840Y10856
X19840Y10856
X18840Y10856
T04
X4234Y5009
X4234Y41427
X44391Y41820
X44588Y5009
M30
