G75*
G70*
%OFA0B0*%
%FSLAX24Y24*%
%IPPOS*%
%LPD*%
%AMOC8*
5,1,8,0,0,1.08239X$1,22.5*
%
%ADD10C,0.2442*%
%ADD11R,0.2324X0.1773*%
%ADD12R,0.0415X0.0434*%
%ADD13R,0.0257X0.0277*%
%ADD14R,0.0316X0.0946*%
%ADD15R,0.0297X0.0552*%
%ADD16R,0.0828X0.0828*%
%ADD17R,0.0789X0.0828*%
%ADD18R,0.0237X0.0611*%
%ADD19R,0.0907X0.0710*%
%ADD20R,0.0671X0.0592*%
%ADD21C,0.0830*%
%ADD22C,0.0415*%
%ADD23R,0.1261X0.1064*%
%ADD24R,0.0513X0.0474*%
%ADD25R,0.0474X0.0513*%
%ADD26R,0.0631X0.0474*%
%ADD27R,0.0474X0.0828*%
%ADD28C,0.0482*%
%ADD29C,0.1080*%
%ADD30C,0.0456*%
%ADD31C,0.0370*%
D10*
X004234Y005009D03*
X004234Y041427D03*
X044391Y041820D03*
X044588Y005009D03*
D11*
X027491Y036250D03*
X021467Y036250D03*
D12*
G36*
X011518Y036212D02*
X011226Y035920D01*
X010920Y036226D01*
X011212Y036518D01*
X011518Y036212D01*
G37*
G36*
X010780Y035474D02*
X010488Y035182D01*
X010182Y035488D01*
X010474Y035780D01*
X010780Y035474D01*
G37*
G36*
X010488Y011418D02*
X010780Y011126D01*
X010474Y010820D01*
X010182Y011112D01*
X010488Y011418D01*
G37*
G36*
X011226Y010680D02*
X011518Y010388D01*
X011212Y010082D01*
X010920Y010374D01*
X011226Y010680D01*
G37*
G36*
X037432Y010388D02*
X037724Y010680D01*
X038030Y010374D01*
X037738Y010082D01*
X037432Y010388D01*
G37*
G36*
X038170Y011126D02*
X038462Y011418D01*
X038768Y011112D01*
X038476Y010820D01*
X038170Y011126D01*
G37*
G36*
X038462Y035182D02*
X038170Y035474D01*
X038476Y035780D01*
X038768Y035488D01*
X038462Y035182D01*
G37*
G36*
X037724Y035920D02*
X037432Y036212D01*
X037738Y036518D01*
X038030Y036226D01*
X037724Y035920D01*
G37*
D13*
G36*
X037865Y035695D02*
X037684Y035876D01*
X037879Y036071D01*
X038060Y035890D01*
X037865Y035695D01*
G37*
G36*
X038126Y035434D02*
X037945Y035615D01*
X038140Y035810D01*
X038321Y035629D01*
X038126Y035434D01*
G37*
G36*
X037945Y010985D02*
X038126Y011166D01*
X038321Y010971D01*
X038140Y010790D01*
X037945Y010985D01*
G37*
G36*
X037684Y010724D02*
X037865Y010905D01*
X038060Y010710D01*
X037879Y010529D01*
X037684Y010724D01*
G37*
G36*
X011085Y010905D02*
X011266Y010724D01*
X011071Y010529D01*
X010890Y010710D01*
X011085Y010905D01*
G37*
G36*
X010824Y011166D02*
X011005Y010985D01*
X010810Y010790D01*
X010629Y010971D01*
X010824Y011166D01*
G37*
G36*
X011005Y035615D02*
X010824Y035434D01*
X010629Y035629D01*
X010810Y035810D01*
X011005Y035615D01*
G37*
G36*
X011266Y035876D02*
X011085Y035695D01*
X010890Y035890D01*
X011071Y036071D01*
X011266Y035876D01*
G37*
D14*
X022850Y019911D03*
X023350Y019911D03*
X023850Y019911D03*
X024350Y019911D03*
X024850Y019911D03*
X025350Y019911D03*
X025850Y019911D03*
X026350Y019911D03*
X026850Y019911D03*
X027350Y019911D03*
X027850Y019911D03*
X028350Y019911D03*
X028850Y019911D03*
X029350Y019911D03*
X029350Y016289D03*
X028850Y016289D03*
X028350Y016289D03*
X027850Y016289D03*
X027350Y016289D03*
X026850Y016289D03*
X026350Y016289D03*
X025850Y016289D03*
X025350Y016289D03*
X024850Y016289D03*
X024350Y016289D03*
X023850Y016289D03*
X023350Y016289D03*
X022850Y016289D03*
D15*
X030226Y035588D03*
X030974Y035588D03*
X030974Y036612D03*
X030600Y036612D03*
X030226Y036612D03*
D16*
X024883Y045340D03*
X023939Y045340D03*
D17*
X022915Y045340D03*
X025907Y045340D03*
D18*
X024923Y044297D03*
X024667Y044297D03*
X024411Y044297D03*
X024155Y044297D03*
X023899Y044297D03*
D19*
X023191Y044346D03*
X025631Y044346D03*
D20*
X025350Y014974D03*
X025350Y014226D03*
D21*
X029100Y022100D03*
X030100Y022100D03*
X031100Y022100D03*
X032100Y022100D03*
X033100Y022100D03*
D22*
X033892Y022308D02*
X034308Y022308D01*
X034308Y021892D01*
X033892Y021892D01*
X033892Y022308D01*
X033892Y022306D02*
X034308Y022306D01*
D23*
X026350Y021600D03*
X023791Y021600D03*
D24*
X023765Y023100D03*
X024435Y023100D03*
X025765Y023100D03*
X026435Y023100D03*
X028765Y015100D03*
X029435Y015100D03*
X030465Y034700D03*
X031135Y034700D03*
X031135Y037800D03*
X030465Y037800D03*
D25*
G36*
X036361Y035050D02*
X036026Y034715D01*
X035665Y035076D01*
X036000Y035411D01*
X036361Y035050D01*
G37*
G36*
X036835Y035524D02*
X036500Y035189D01*
X036139Y035550D01*
X036474Y035885D01*
X036835Y035524D01*
G37*
G36*
X037538Y034824D02*
X037203Y034489D01*
X036842Y034850D01*
X037177Y035185D01*
X037538Y034824D01*
G37*
G36*
X038235Y034124D02*
X037900Y033789D01*
X037539Y034150D01*
X037874Y034485D01*
X038235Y034124D01*
G37*
G36*
X037761Y033650D02*
X037426Y033315D01*
X037065Y033676D01*
X037400Y034011D01*
X037761Y033650D01*
G37*
G36*
X037065Y034350D02*
X036730Y034015D01*
X036369Y034376D01*
X036704Y034711D01*
X037065Y034350D01*
G37*
X022600Y021685D03*
X022600Y021015D03*
X021685Y019100D03*
X021015Y019100D03*
X021015Y018100D03*
X021685Y018100D03*
X021685Y017100D03*
X021015Y017100D03*
X026350Y014935D03*
X026350Y014265D03*
X030515Y019850D03*
X031185Y019850D03*
G36*
X036850Y012989D02*
X036515Y013324D01*
X036876Y013685D01*
X037211Y013350D01*
X036850Y012989D01*
G37*
G36*
X037324Y012515D02*
X036989Y012850D01*
X037350Y013211D01*
X037685Y012876D01*
X037324Y012515D01*
G37*
G36*
X036574Y011765D02*
X036239Y012100D01*
X036600Y012461D01*
X036935Y012126D01*
X036574Y011765D01*
G37*
G36*
X035824Y011015D02*
X035489Y011350D01*
X035850Y011711D01*
X036185Y011376D01*
X035824Y011015D01*
G37*
G36*
X035350Y011489D02*
X035015Y011824D01*
X035376Y012185D01*
X035711Y011850D01*
X035350Y011489D01*
G37*
G36*
X036100Y012239D02*
X035765Y012574D01*
X036126Y012935D01*
X036461Y012600D01*
X036100Y012239D01*
G37*
G36*
X012489Y011350D02*
X012824Y011685D01*
X013185Y011324D01*
X012850Y010989D01*
X012489Y011350D01*
G37*
G36*
X012015Y010876D02*
X012350Y011211D01*
X012711Y010850D01*
X012376Y010515D01*
X012015Y010876D01*
G37*
G36*
X011265Y011626D02*
X011600Y011961D01*
X011961Y011600D01*
X011626Y011265D01*
X011265Y011626D01*
G37*
G36*
X011739Y012100D02*
X012074Y012435D01*
X012435Y012074D01*
X012100Y011739D01*
X011739Y012100D01*
G37*
G36*
X010989Y012850D02*
X011324Y013185D01*
X011685Y012824D01*
X011350Y012489D01*
X010989Y012850D01*
G37*
G36*
X010515Y012376D02*
X010850Y012711D01*
X011211Y012350D01*
X010876Y012015D01*
X010515Y012376D01*
G37*
G36*
X011653Y033961D02*
X011988Y033626D01*
X011627Y033265D01*
X011292Y033600D01*
X011653Y033961D01*
G37*
G36*
X011180Y034435D02*
X011515Y034100D01*
X011154Y033739D01*
X010819Y034074D01*
X011180Y034435D01*
G37*
G36*
X012000Y035258D02*
X012335Y034923D01*
X011974Y034562D01*
X011639Y034897D01*
X012000Y035258D01*
G37*
G36*
X012776Y036085D02*
X013111Y035750D01*
X012750Y035389D01*
X012415Y035724D01*
X012776Y036085D01*
G37*
G36*
X013250Y035611D02*
X013585Y035276D01*
X013224Y034915D01*
X012889Y035250D01*
X013250Y035611D01*
G37*
G36*
X012473Y034785D02*
X012808Y034450D01*
X012447Y034089D01*
X012112Y034424D01*
X012473Y034785D01*
G37*
D26*
X019167Y019600D03*
X020033Y019226D03*
X020033Y019974D03*
X020033Y018474D03*
X020033Y017726D03*
X020033Y016974D03*
X020033Y016226D03*
X019167Y016600D03*
X019167Y018100D03*
D27*
X018840Y011856D03*
X020840Y011856D03*
X022840Y011856D03*
X024840Y011856D03*
X026840Y011856D03*
X025840Y009856D03*
X023840Y009856D03*
X021840Y009856D03*
X019840Y009856D03*
X027840Y009856D03*
X029840Y009856D03*
X031840Y009856D03*
X030840Y011856D03*
X028840Y011856D03*
D28*
X028840Y010856D03*
X027840Y010856D03*
X026840Y010856D03*
X025840Y010856D03*
X024840Y010856D03*
X023840Y010856D03*
X022840Y010856D03*
X021840Y010856D03*
X020840Y010856D03*
X019840Y010856D03*
X018840Y010856D03*
X029840Y010856D03*
X030840Y010856D03*
X031840Y010856D03*
D29*
X033100Y034100D03*
X033100Y036100D03*
X033100Y038100D03*
D30*
X034350Y036100D03*
X030600Y037200D03*
X037075Y024850D03*
X038350Y024850D03*
X039350Y023600D03*
X033850Y023600D03*
X028600Y018100D03*
X027600Y019100D03*
X026850Y017600D03*
X026350Y017100D03*
X025850Y017100D03*
X023350Y018850D03*
X022850Y018850D03*
X023750Y020750D03*
X020850Y015100D03*
X013600Y016600D03*
X012837Y017350D03*
X013600Y018100D03*
X012100Y016600D03*
X011100Y018100D03*
X011600Y013350D03*
X012450Y013350D03*
X012100Y032350D03*
X012100Y033950D03*
X011100Y035100D03*
X011850Y035850D03*
X035487Y014187D03*
X035500Y013200D03*
X036717Y014467D03*
X037600Y011850D03*
X036850Y011100D03*
X034350Y011850D03*
D31*
X024425Y039875D03*
X024675Y040225D03*
M02*
